<?xml version="1.0" standalone="no"?>
<!-- Generator: Adobe Fireworks 10, Export SVG Extension by Aaron Beall (http://fireworks.abeall.com) . Version: 0.6.1  -->
<!DOCTYPE svg PUBLIC "-//W3C//DTD SVG 1.1//EN" "http://www.w3.org/Graphics/SVG/1.1/DTD/svg11.dtd">
<svg id="logo.fw-Page%201" viewBox="0 0 272 148" style="background-color:#ffffff00" version="1.1"
	xmlns="http://www.w3.org/2000/svg" xmlns:xlink="http://www.w3.org/1999/xlink" xml:space="preserve"
	x="0px" y="0px" width="272px" height="148px"
>
	<path d="M 92.8512 62 C 100.8074 62 105.14 58.8447 109 54.217 L 104.5886 51.2721 C 100.8862 55.6895 97.4989 57.0217 92.93 57.0217 C 85.3676 57.0217 78.7505 49.4491 78.7505 43.4892 C 78.7505 42.9983 78.9081 41.8063 80.2473 41.8063 L 91.0394 41.8063 C 100.8074 41.8063 107.976 37.0384 107.976 30.5175 C 107.976 24.4875 101.7527 20 92.8512 20 C 81.4289 20 73 30.0968 73 41.596 C 73 52.3239 80.9562 62 92.8512 62 L 92.8512 62 ZM 92.8512 24.8381 C 99.7046 24.8381 102.3829 27.9232 102.3829 30.4474 C 102.3829 34.0234 97.814 36.7579 90.8818 36.7579 L 80.1685 36.7579 C 80.0897 36.7579 79.7746 36.7579 78.9081 36.8982 C 80.5624 29.9566 86.2341 24.8381 92.8512 24.8381 L 92.8512 24.8381 Z" stroke="#e4e9f8" stroke-width="2" fill="#e4e9f8"/>
	<path d="M 254.8512 132 C 262.8074 132 267.14 128.8447 271 124.217 L 266.5886 121.2721 C 262.8862 125.6895 259.4989 127.0217 254.93 127.0217 C 247.3676 127.0217 240.7505 119.4491 240.7505 113.4891 C 240.7505 112.9983 240.9081 111.8063 242.2473 111.8063 L 253.0394 111.8063 C 262.8074 111.8063 269.976 107.0384 269.976 100.5175 C 269.976 94.4875 263.7527 90 254.8512 90 C 243.4289 90 235 100.0968 235 111.596 C 235 122.3239 242.9562 132 254.8512 132 L 254.8512 132 ZM 254.8512 94.8381 C 261.7046 94.8381 264.3829 97.9232 264.3829 100.4474 C 264.3829 104.0234 259.814 106.7579 252.8818 106.7579 L 242.1685 106.7579 C 242.0897 106.7579 241.7746 106.7579 240.9081 106.8982 C 242.5624 99.9566 248.2341 94.8381 254.8512 94.8381 L 254.8512 94.8381 Z" stroke="#e4e9f8" stroke-width="2" fill="#e4e9f8"/>
	<path d="M 163.6832 134 C 172.6428 134 180.3665 128.01 180.3665 120.2537 L 180.3665 101.823 C 180.3665 94.2203 172.9517 88 164.3784 88 C 158.8945 88 153.7969 90.3038 150.7846 94.2972 L 149.1627 96.4474 L 153.488 99.6727 L 155.1099 97.5225 C 157.0408 94.9883 160.4392 93.3756 164.3011 93.3756 C 170.3256 93.3756 174.9598 97.2922 174.9598 101.7462 L 174.9598 104.2805 C 174.9598 106.2772 173.415 106.3539 173.1061 106.3539 C 171.9476 106.3539 163.6832 106.3539 163.6832 106.3539 C 154.7238 106.3539 147 112.4208 147 120.177 C 147 127.9332 154.7238 134 163.6832 134 L 163.6832 134 ZM 172.9517 111.8064 C 173.2607 111.8064 173.9558 111.8064 174.9598 111.5759 L 174.9598 120.177 C 174.9598 124.631 169.7077 128.5475 163.606 128.5475 C 157.427 128.5475 152.2521 124.631 152.2521 120.177 C 152.2521 115.6461 157.427 111.9599 163.606 111.8832 L 172.9517 111.8064 L 172.9517 111.8064 Z" stroke="#e4e9f8" stroke-width="2" fill="#e4e9f8"/>
	<path d="M 210.8567 132.2598 L 228.2933 88.5477 L 222.429 88.5477 L 208.4327 123.5757 L 194.4364 88.5477 L 188.5721 88.5477 L 206.0088 132.2598 L 210.8567 132.2598 L 210.8567 132.2598 Z" stroke="#e4e9f8" stroke-width="2" fill="#e4e9f8"/>
	<g>
		<path d="M 96.3323 115.4286 L 96.3323 111.9313 C 96.3323 99.5881 90.7558 89.5775 79.2769 89.5775 C 67.7979 89.5775 62.6856 99.5881 62.6856 111.9313 L 62.6856 115.4286 L 69.6953 115.4286 L 69.6953 111.2798 C 69.6953 102.6298 72.3071 96.3807 80.0894 96.3807 C 87.8718 96.3807 89.3226 103.2813 89.3226 111.9313 L 89.3226 115.4286 L 96.1321 115.4286 L 96.3323 115.4286 Z" stroke="#6633cc" stroke-width="2" fill="#6633cc"/>
		<path d="M 34.6467 107.0204 L 34.6467 103.097 C 34.6467 90.7538 29.0356 80.7432 17.5566 80.7432 C 6.0777 80.7432 1 80.7422 1 80.7422 L 1 87.5405 C 1 87.5405 10.454 87.5465 18.2363 87.5465 C 26.0187 87.5465 27.637 94.4471 27.637 103.097 L 27.637 107.0204 L 34.4465 107.0204 L 34.6467 107.0204 Z" stroke="#6633cc" stroke-width="2" fill="#6633cc"/>
		<path d="M 166.4296 62.1766 L 166.4296 39.0488 C 166.4296 26.7056 156.8626 16.6949 145.3836 16.6949 C 133.9046 16.6949 124.3712 26.7056 124.3712 39.0488 L 124.3712 66.3807 L 131.381 66.3807 L 131.381 37.9377 C 131.381 29.2877 139.1746 23.4983 146.9569 23.4983 C 154.7393 23.4983 159.4199 30.3988 159.4199 39.0488 L 159.4199 62.1766 L 166.2294 62.1766 L 166.4296 62.1766 Z" stroke="#6633cc" stroke-width="2" fill="#6633cc"/>
		<path d="M 69.6953 115.4286 L 69.6953 124.6461 C 69.6953 136.9894 60.1283 147 48.6493 147 C 37.1703 147 27.637 136.9894 27.637 124.6461 L 27.637 100.0135 L 34.6467 100.0135 L 34.6467 125.6288 C 34.6467 134.2788 40.1676 140.1967 47.95 140.1967 C 55.7323 140.1967 62.6856 133.2961 62.6856 124.6461 L 62.6856 115.4286 L 69.4952 115.4286 L 69.6953 115.4286 Z" stroke="#6633cc" stroke-width="2" fill="#6633cc"/>
		<path d="M 89.3226 115.4286 L 89.3226 124.6461 C 89.3226 136.9894 98.8896 147 110.3686 147 C 121.8476 147 131.381 136.9894 131.381 124.6461 L 131.381 66.3807 L 124.3712 66.3807 L 124.3712 124.3297 C 124.3712 132.9797 117.8781 140.1967 110.0957 140.1967 C 102.3134 140.1967 96.3323 133.2961 96.3323 124.6461 L 96.3323 115.4286 L 89.5228 115.4286 L 89.3226 115.4286 Z" stroke="#6633cc" stroke-width="2" fill="#6633cc"/>
	</g>
	<path d="M 6.662 33.5864 C 6.662 33.5864 9.981 26.2037 18.1909 26.2037 C 26.1389 26.2037 30.5042 31.1519 30.5042 41.4776 C 30.5042 51.9712 26.2263 56.8403 18.1909 56.8403 C 11.4658 56.8403 6.662 53.1465 6.662 45.1714 L 6.662 33.5864 L 6.662 33.5864 ZM 18.5403 20.9042 C 12.9505 20.9042 8.6708 23.9192 6.662 26.7865 L 6.662 3.6109 C 6.662 2.1426 5.4564 1 3.9063 1 C 2.3562 1 1.1505 2.1426 1.1505 3.6109 L 1.1505 45.1714 C 1.1505 56.2526 8.2341 62.1398 18.1909 62.1398 C 29.4578 62.1398 36.0156 55.2452 36.0156 41.4776 C 36.0156 27.71 29.8072 20.9042 18.5403 20.9042 L 18.5403 20.9042 Z" stroke="#e4e9f8" stroke-width="2" fill="#e4e9f8"/>
	<path d="M 53.4689 1 C 52.0049 1 50.7131 2.2764 50.7131 3.7123 L 50.7131 51.9392 C 50.7131 58.5206 53.8994 62.053 59.6692 62.053 C 60.9503 62.053 62.1527 60.905 62.1527 59.4037 C 62.1527 57.9024 60.9503 56.7535 59.5778 56.7535 C 57.3441 56.7535 56.2246 55.3177 56.2246 51.9392 L 56.2246 3.7123 C 56.2246 2.2764 55.0189 1 53.4689 1 L 53.4689 1 Z" stroke="#e4e9f8" stroke-width="2" fill="#e4e9f8"/>
	<path d="M 210.0684 45.1714 C 210.0684 53.1465 205.2664 56.8403 198.5412 56.8403 C 190.5059 56.8403 186.2262 51.9712 186.2262 41.4776 C 186.2262 31.1519 190.5933 26.2037 198.5412 26.2037 C 206.7512 26.2037 210.0684 33.5864 210.0684 33.5864 L 210.0684 45.1714 L 210.0684 45.1714 ZM 198.1918 20.9042 C 186.9249 20.9042 180.7147 27.71 180.7147 41.4776 C 180.7147 55.2452 187.2743 62.1398 198.5412 62.1398 C 208.498 62.1398 215.5798 56.2526 215.5798 45.1714 L 215.5798 3.6109 C 215.5798 2.1426 214.3741 1 212.8241 1 C 211.2739 1 210.0684 2.1426 210.0684 3.6109 L 210.0684 26.7865 C 208.0613 23.9192 203.7816 20.9042 198.1918 20.9042 L 198.1918 20.9042 Z" stroke="#e4e9f8" stroke-width="2" fill="#e4e9f8"/>
</svg>
