<?xml version="1.0" encoding="UTF-8" standalone="no"?>
<!-- Created with PhotoLine 20.02 (www.pl32.com) -->
<!DOCTYPE svg PUBLIC "-//W3C//DTD SVG 1.1//EN" "http://www.w3.org/Graphics/SVG/1.1/DTD/svg11.dtd">
<svg width="35" height="35" viewBox="0 0 35 35" version="1.1" xmlns="http://www.w3.org/2000/svg" xmlns:xlink="http://www.w3.org/1999/xlink">
  <g transform="matrix(1 0 0 1 -735.489929 -64.489914)">
    <g id="Ellipse">
      <path fill="none" stroke="#c8cddf" d="M736 82 C736 72.61 743.61 65 753 65 C762.39 65 770 72.61 770 82 C770 91.39 762.39 99 753 99 C743.61 99 736 91.39 736 82 Z"/>
    </g>
    <path fill="none" stroke="#c8cddf" d="M754.96 78.96 C755.52 78.88 756.85 78.7 756.98 78.12 C757.16 77.28 753.35 77 752.87 77 C752.35 77 748.81 77.29 748.92 78.13 C749 78.71 750.3 78.9 750.84 78.98 C750.84 78.98 751.1 82.57 750.02 82.94 C748.94 83.33 745.77 84.93 745.06 87.59 L745.03 87.58 C744.61 91.11 749.28 93 752.89 93 C756.42 93 761.33 91.06 760.98 87.55 C760.72 84.85 756.69 83.5 755.89 83.1 C755.1 82.7 754.96 78.96 754.96 78.96 Z"/>
    <g id="Ellipse2">
      <path fill="#c8cddf" stroke="#c8cddf" d="M746.33 88.42 C746.46 87.51 748.14 85.24 749.89 84.99 C751.01 84.83 751.94 86.96 753.36 87.16 C755.02 87.4 757.54 86.23 758.64 86.81 C759.95 87.5 759.62 89.49 759.5 90.3 C759.29 91.79 756.17 92.58 752.53 92.06 C748.89 91.54 746.11 89.91 746.33 88.42 Z"/>
    </g>
    <g id="Ellipse3">
      <path fill="none" stroke="#c8cddf" d="M750 73 C750 71.9 750.9 71 752 71 C753.1 71 754 71.9 754 73 C754 74.1 753.1 75 752 75 C750.9 75 750 74.1 750 73 Z"/>
    </g>
    <g id="Ellipse4">
      <path fill="none" stroke="#c8cddf" d="M755 71 C755 70.45 755.45 70 756 70 C756.55 70 757 70.45 757 71 C757 71.55 756.55 72 756 72 C755.45 72 755 71.55 755 71 Z"/>
    </g>
  </g>
</svg>
