<?xml version="1.0" encoding="UTF-8" standalone="no"?>
<!-- Created with PhotoLine 20.02 (www.pl32.com) -->
<!DOCTYPE svg PUBLIC "-//W3C//DTD SVG 1.1//EN" "http://www.w3.org/Graphics/SVG/1.1/DTD/svg11.dtd">
<svg width="35" height="35" viewBox="0 0 35 35" version="1.1" xmlns="http://www.w3.org/2000/svg" xmlns:xlink="http://www.w3.org/1999/xlink">
  <g transform="matrix(1 0 0 1 -421.489898 -64.489914)">
    <g id="Ellipse">
      <path fill="none" stroke="#c8cddf" d="M422 82 C422 72.61 429.61 65 439 65 C448.39 65 456 72.61 456 82 C456 91.39 448.39 99 439 99 C429.61 99 422 91.39 422 82 Z"/>
    </g>
    <path fill="none" stroke="#c8cddf" d="M451 81.83 L449.13 81.83 C449.13 81.83 447.17 92.58 445.12 82.26 C445.12 82.26 443.04 65.92 440.55 82.26 C440.55 82.26 439.32 92.92 437.28 82.26 C437.28 82.26 434.83 74.18 433.36 82.26 C433.36 82.26 431.56 92.58 429.43 82.26 L427 82.26"/>
  </g>
</svg>
