<?xml version="1.0" encoding="UTF-8" standalone="no"?>
<!-- Created with PhotoLine 20.02 (www.pl32.com) -->
<!DOCTYPE svg PUBLIC "-//W3C//DTD SVG 1.1//EN" "http://www.w3.org/Graphics/SVG/1.1/DTD/svg11.dtd">
<svg width="35" height="35" viewBox="0 0 35 35" version="1.1" xmlns="http://www.w3.org/2000/svg" xmlns:xlink="http://www.w3.org/1999/xlink">
  <g transform="matrix(1 0 0 1 -238.489914 -64.489914)">
    <g id="Ellipse">
      <path fill="none" stroke="#c8cddf" d="M239 82 C239 72.61 246.61 65 256 65 C265.39 65 273 72.61 273 82 C273 91.39 265.39 99 256 99 C246.61 99 239 91.39 239 82 Z"/>
    </g>
    <path fill="none" stroke="#c8cddf" d="M248 84.59 C248 84.55 250.21 84.55 250.52 84.55 C250.82 84.55 256 89 256 89 C256 89 256 75.53 256 75.41 C256 75.29 250.46 80.5 250.46 80.5 L248 80.5 C248 80.5 248 84.63 248 84.59 Z"/>
    <path fill="none" stroke="#c8cddf" d="M259.06 78.75 C261.19 78.75 262.31 84.62 258.62 85.19"/>
    <path fill="none" stroke="#c8cddf" d="M262.25 77 C264.68 77.72 266.78 84.33 261.94 87.06"/>
  </g>
</svg>
